<?xml version="1.0" encoding="utf-8"?>
<!-- Generator: Adobe Illustrator 16.0.0, SVG Export Plug-In . SVG Version: 6.00 Build 0)  -->
<!DOCTYPE svg PUBLIC "-//W3C//DTD SVG 1.1//EN" "http://www.w3.org/Graphics/SVG/1.1/DTD/svg11.dtd" [
	<!ENTITY ns_extend "http://ns.adobe.com/Extensibility/1.0/">
	<!ENTITY ns_ai "http://ns.adobe.com/AdobeIllustrator/10.0/">
	<!ENTITY ns_graphs "http://ns.adobe.com/Graphs/1.0/">
	<!ENTITY ns_vars "http://ns.adobe.com/Variables/1.0/">
	<!ENTITY ns_imrep "http://ns.adobe.com/ImageReplacement/1.0/">
	<!ENTITY ns_sfw "http://ns.adobe.com/SaveForWeb/1.0/">
	<!ENTITY ns_custom "http://ns.adobe.com/GenericCustomNamespace/1.0/">
	<!ENTITY ns_adobe_xpath "http://ns.adobe.com/XPath/1.0/">
]>
<svg version="1.1" id="Layer_1" xmlns:x="&ns_extend;" xmlns:i="&ns_ai;" xmlns:graph="&ns_graphs;"
	 xmlns="http://www.w3.org/2000/svg" xmlns:xlink="http://www.w3.org/1999/xlink" x="0px" y="0px" width="472.016px"
	 height="461.122px" viewBox="0 0 472.016 461.122" enable-background="new 0 0 472.016 461.122" xml:space="preserve">
<metadata>
	<sfw  xmlns="&ns_sfw;">
		<slices></slices>
		<sliceSourceBounds  width="472.016" height="461.122" x="1223.992" y="-397.824" bottomLeftOrigin="true"></sliceSourceBounds>
	</sfw>
</metadata>
<path d="M236.008,0C105.665,0,0,105.665,0,236.008c0,105.633,69.42,195.003,165.109,225.114l42.299-147.682
	c-32.809-29.232-82.143-79.002-82.143-114.061c0-0.729,0.048-1.456,0.062-2.18c-0.032-0.847-0.062-1.691-0.062-2.542
	c0-9.474,2.198-18.433,6.1-26.405c9.779-19.96,30.285-33.71,54.017-33.71c21.268,0,39.942,11.049,50.626,27.717
	c10.688-16.668,29.36-27.717,50.626-27.717c23.728,0,44.237,13.75,54.013,33.71c3.905,7.973,6.102,16.932,6.102,26.405
	c0,0.851-0.032,1.695-0.06,2.542c0.014,0.725,0.06,1.451,0.06,2.18c0,35.057-49.33,84.826-82.141,114.061l42.303,147.68
	c95.688-30.111,165.105-119.481,165.105-225.112C472.016,105.665,366.354,0,236.008,0z"/>
</svg>
