<?xml version="1.0" encoding="utf-8"?>
<!-- Generator: Adobe Illustrator 16.0.0, SVG Export Plug-In . SVG Version: 6.00 Build 0)  -->
<!DOCTYPE svg PUBLIC "-//W3C//DTD SVG 1.1//EN" "http://www.w3.org/Graphics/SVG/1.1/DTD/svg11.dtd" [
	<!ENTITY ns_extend "http://ns.adobe.com/Extensibility/1.0/">
	<!ENTITY ns_ai "http://ns.adobe.com/AdobeIllustrator/10.0/">
	<!ENTITY ns_graphs "http://ns.adobe.com/Graphs/1.0/">
	<!ENTITY ns_vars "http://ns.adobe.com/Variables/1.0/">
	<!ENTITY ns_imrep "http://ns.adobe.com/ImageReplacement/1.0/">
	<!ENTITY ns_sfw "http://ns.adobe.com/SaveForWeb/1.0/">
	<!ENTITY ns_custom "http://ns.adobe.com/GenericCustomNamespace/1.0/">
	<!ENTITY ns_adobe_xpath "http://ns.adobe.com/XPath/1.0/">
]>
<svg version="1.1" id="Layer_1" xmlns:x="&ns_extend;" xmlns:i="&ns_ai;" xmlns:graph="&ns_graphs;"
	 xmlns="http://www.w3.org/2000/svg" xmlns:xlink="http://www.w3.org/1999/xlink" x="0px" y="0px" width="767.287px"
	 height="686.596px" viewBox="0 0 767.287 686.596" enable-background="new 0 0 767.287 686.596" xml:space="preserve">
<metadata>
	<sfw  xmlns="&ns_sfw;">
		<slices></slices>
		<sliceSourceBounds  width="767.287" height="686.596" x="1076.356" y="-623.298" bottomLeftOrigin="true"></sliceSourceBounds>
	</sfw>
</metadata>
<g>
	<g>
		<path d="M112.327,573.128H69.187v111.948h-26.04V573.128H0v-22.997h112.327V573.128z"/>
		<path d="M242.521,550.131v134.945h-26.037v-57.588H155.28v57.588h-26.229V550.131h26.229v54.547h61.203v-54.547H242.521z"/>
		<path d="M309.042,550.131h23.19l51.317,134.945h-26.988l-12.545-33.641h-47.136l-12.355,33.641h-26.99L309.042,550.131z
			 M339.265,632.999l-18.626-53.028l-19.39,53.028H339.265z"/>
		<path d="M424.603,598.597v86.479h-26.229V550.131h20.338l70.321,88.57v-88.382h26.235v134.757h-21.292L424.603,598.597z"/>
		<path d="M543.391,685.076V550.319h26.229v64.051l56.643-64.239h28.889l-51.698,59.871l54.929,75.074H628.92l-42.003-58.349
			l-17.297,18.055v40.294H543.391z"/>
		<path d="M750.94,585.483c-0.887-0.887-2.504-2.093-4.848-3.612c-2.344-1.521-5.197-3.009-8.551-4.467
			c-3.359-1.456-7.003-2.689-10.932-3.706c-3.926-1.014-7.917-1.523-11.972-1.523c-7.222,0-12.608,1.332-16.155,3.991
			c-3.548,2.664-5.322,6.401-5.322,11.217c0,2.79,0.668,5.102,1.996,6.938s3.259,3.452,5.799,4.846
			c2.531,1.398,5.731,2.66,9.594,3.802c3.865,1.138,8.331,2.344,13.4,3.61c6.589,1.777,12.575,3.678,17.962,5.702
			c5.383,2.029,9.943,4.561,13.685,7.603c3.738,3.041,6.621,6.685,8.647,10.928c2.026,4.249,3.043,9.474,3.043,15.684
			c0,7.22-1.364,13.397-4.089,18.528c-2.724,5.133-6.399,9.284-11.02,12.449c-4.63,3.168-9.953,5.482-15.967,6.938
			c-6.023,1.458-12.325,2.185-18.914,2.185c-10.139,0-20.146-1.52-30.029-4.561c-9.883-3.042-18.756-7.347-26.608-12.924
			l11.592-22.615c1.143,1.138,3.201,2.627,6.176,4.464c2.979,1.837,6.495,3.676,10.552,5.513c4.054,1.837,8.554,3.393,13.495,4.656
			c4.942,1.268,10.007,1.901,15.206,1.901c14.442,0,21.664-4.625,21.664-13.875c0-2.915-0.825-5.387-2.47-7.411
			c-1.647-2.028-3.991-3.804-7.032-5.323s-6.717-2.915-11.021-4.181c-4.311-1.266-9.125-2.662-14.445-4.181
			c-6.461-1.773-12.072-3.708-16.824-5.798c-4.75-2.092-8.711-4.562-11.877-7.411c-3.169-2.855-5.545-6.147-7.131-9.885
			c-1.583-3.736-2.373-8.202-2.373-13.399c0-6.842,1.266-12.924,3.803-18.247c2.532-5.323,6.051-9.753,10.549-13.303
			c4.494-3.546,9.721-6.24,15.682-8.079c5.953-1.835,12.353-2.755,19.193-2.755c9.506,0,18.249,1.492,26.229,4.467
			c7.984,2.979,14.95,6.493,20.908,10.548L750.94,585.483z"/>
	</g>
	<path d="M383.644,0C253.301,0,147.636,105.665,147.636,236.008c0,105.633,69.42,195.003,165.109,225.114l42.299-147.682
		c-32.809-29.232-82.143-79.002-82.143-114.061c0-0.729,0.048-1.456,0.062-2.18c-0.032-0.847-0.062-1.691-0.062-2.542
		c0-9.474,2.198-18.433,6.1-26.405c9.779-19.96,30.285-33.71,54.017-33.71c21.268,0,39.942,11.049,50.626,27.717
		c10.688-16.668,29.36-27.717,50.626-27.717c23.728,0,44.237,13.75,54.013,33.71c3.905,7.973,6.102,16.932,6.102,26.405
		c0,0.851-0.032,1.695-0.06,2.542c0.014,0.725,0.06,1.451,0.06,2.18c0,35.057-49.33,84.826-82.141,114.061l42.303,147.68
		c95.688-30.111,165.105-119.481,165.105-225.112C619.651,105.665,513.99,0,383.644,0z"/>
</g>
</svg>
